# Blender v3.0.1 OBJ File: 'chopper.blend'
# www.blender.org
mtllib chopper.mtl
o Lo_poly_Spaceship_05_by_Liz_Reddington
v -52.736565 -20.407450 113.984550
v -52.736565 -6.115321 113.984550
v -67.028694 -6.115321 113.984550
v -67.028694 -20.407450 113.984550
v -52.736565 -6.115301 -9.960352
v -67.028694 -6.115301 -9.960352
v -52.736565 -20.407429 -9.960354
v -67.028694 -20.407429 -9.960354
v 52.736565 -20.407450 113.984550
v 67.028694 -20.407450 113.984550
v 67.028694 -6.115321 113.984550
v 52.736565 -6.115321 113.984550
v 67.028694 -6.115301 -9.960352
v 52.736565 -6.115301 -9.960352
v 52.736565 -20.407429 -9.960354
v 67.028694 -20.407429 -9.960354
v 71.274223 -22.883963 -36.057274
v 105.354065 -41.579006 -19.295738
v 105.354065 -28.518509 -19.295734
v 71.274223 -7.998470 -36.057270
v 128.812485 -28.518488 -153.342651
v 101.006676 -7.998446 -186.795013
v 128.812485 -41.578983 -153.342651
v 101.006676 -22.883938 -186.795013
v 232.777908 -111.479416 43.375305
v 232.777908 -111.479401 -28.264898
v 232.777908 -105.242508 -28.264896
v 232.777908 -105.242523 43.375309
v 214.065018 -91.432838 -50.777832
v 214.065018 -98.897926 -50.777832
v 209.842682 -98.897942 32.095047
v 209.842682 -91.432854 32.095047
v -71.274223 -22.883963 -36.057274
v -71.274223 -7.998470 -36.057270
v -105.354065 -28.518509 -19.295734
v -105.354065 -41.579006 -19.295738
v -101.006676 -7.998446 -186.795013
v -128.812485 -28.518488 -153.342651
v -101.006676 -22.883938 -186.795013
v -128.812485 -41.578983 -153.342651
v -232.777908 -111.479416 43.375305
v -232.777908 -105.242523 43.375309
v -232.777908 -105.242508 -28.264896
v -232.777908 -111.479401 -28.264898
v -214.065018 -98.897926 -50.777832
v -214.065018 -91.432838 -50.777832
v -209.842682 -98.897942 32.095047
v -209.842682 -91.432854 32.095047
v -25.239109 -21.715019 71.467651
v -43.854076 15.747395 71.467651
v -83.317993 -3.862105 -20.916771
v -64.703026 -41.324516 -20.916779
v -62.921947 33.246315 -195.216507
v -120.413734 4.678807 -195.216507
v -40.264114 -19.958387 -195.216507
v -94.724854 -47.019779 -195.216522
v 25.239109 -21.715019 71.467651
v 64.703026 -41.324516 -20.916779
v 83.317993 -3.862105 -20.916771
v 43.854076 15.747395 71.467651
v 120.413734 4.678807 -195.216507
v 62.921947 33.246315 -195.216507
v 94.724854 -47.019779 -195.216522
v 40.264114 -19.958387 -195.216507
v -59.475906 -15.323913 -62.843040
v -59.475906 -0.791226 -62.843037
v -102.274704 15.578613 -62.716496
v -102.274704 2.976690 -62.716499
v -100.748833 11.911242 -186.683533
v -122.189125 20.323843 -170.356445
v -104.554054 -0.313248 -186.683533
v -125.180054 9.536174 -170.356445
v -200.939316 48.954819 -62.251698
v -200.939316 54.465042 -62.251698
v -200.939316 51.223320 -110.386932
v -200.939316 45.713097 -110.386932
v 59.475906 -15.323913 -62.843040
v 102.274704 2.976690 -62.716499
v 102.274704 15.578613 -62.716496
v 59.475906 -0.791226 -62.843037
v 122.189125 20.323843 -170.356445
v 100.748833 11.911242 -186.683533
v 125.180054 9.536174 -170.356445
v 104.554054 -0.313248 -186.683533
v 200.939316 48.954819 -62.251698
v 200.939316 45.713097 -110.386932
v 200.939316 51.223320 -110.386932
v 200.939316 54.465042 -62.251698
v -56.120663 -17.023367 211.509933
v -56.120663 -9.499434 211.509933
v -63.644596 -9.499434 211.509933
v -63.644596 -17.023367 211.509933
v -56.120663 -9.499417 113.183533
v -63.644596 -9.499417 113.183533
v -56.120663 -17.023352 113.183533
v -63.644596 -17.023352 113.183533
v 72.019104 21.959085 -194.598221
v 112.793762 1.266118 -194.598221
v 127.440735 6.051356 -236.277100
v 67.233871 36.606071 -236.277100
v 75.399834 11.611143 -219.801620
v 102.445831 -2.114583 -219.801620
v 88.720108 -29.160612 -219.801620
v 61.674080 -15.434874 -219.801620
v 36.679169 -23.600813 -236.277100
v 96.886024 -54.155514 -236.277115
v 92.100792 -39.508541 -194.598221
v 51.326141 -18.815590 -194.598221
v 112.638763 1.215489 -236.277100
v 72.069740 21.804085 -236.277100
v 92.050163 -39.353539 -236.277100
v 51.481140 -18.764946 -236.277100
v 56.120663 -17.023367 211.509933
v 63.644596 -17.023367 211.509933
v 63.644596 -9.499434 211.509933
v 56.120663 -9.499434 211.509933
v 63.644596 -9.499417 113.183533
v 56.120663 -9.499417 113.183533
v 56.120663 -17.023352 113.183533
v 63.644596 -17.023352 113.183533
v -72.019104 21.959085 -194.598221
v -67.233871 36.606071 -236.277100
v -127.440735 6.051356 -236.277100
v -112.793762 1.266118 -194.598221
v -75.399834 11.611143 -219.801620
v -61.674080 -15.434874 -219.801620
v -88.720108 -29.160612 -219.801620
v -102.445831 -2.114583 -219.801620
v -36.679169 -23.600813 -236.277100
v -51.326141 -18.815590 -194.598221
v -92.100792 -39.508541 -194.598221
v -96.886024 -54.155514 -236.277115
v -72.069740 21.804085 -236.277100
v -112.638763 1.215489 -236.277100
v -92.050163 -39.353539 -236.277100
v -51.481140 -18.764946 -236.277100
v -6.281157 92.561508 -74.784294
v 6.281157 92.561508 -74.784294
v 3.380893 128.673477 -180.894821
v -3.380893 128.673477 -180.894821
v 3.315768 128.673477 -216.254761
v -3.315768 128.673477 -216.254761
v 11.407578 92.531830 -212.059677
v -11.407578 92.531830 -212.059677
v -18.213015 -32.072384 356.792603
v 18.213015 -32.072384 356.792603
v 24.005125 -2.527052 365.977478
v -24.005125 -2.527052 365.977478
v 45.075642 18.989094 68.500404
v -45.075642 18.989094 68.500404
v -65.638069 40.362633 -199.588257
v 65.638069 40.362633 -199.588257
v 49.800476 -24.819323 -199.588257
v -49.800476 -24.819323 -199.588257
v 50.886185 24.922523 -13.533775
v -26.772980 91.602318 -57.611507
v 26.772980 91.602318 -57.611507
v 20.554901 107.042442 -267.783325
v -20.554901 107.042442 -267.783325
v 24.104076 73.085785 0.145925
v -24.104076 73.085785 0.145925
v -50.886185 24.922523 -13.533775
vt 0.375000 0.250000
vt 0.625000 0.000000
vt 0.375000 0.000000
vt 0.375000 0.500000
vt 0.625000 0.250000
vt 0.375000 1.000000
vt 0.625000 0.750000
vt 0.375000 0.750000
vt 0.875000 0.000000
vt 0.125000 0.250000
vt 0.125000 0.000000
vt 0.625000 0.000000
vt 0.375000 0.250000
vt 0.375000 0.000000
vt 0.625000 0.250000
vt 0.375000 0.500000
vt 0.625000 0.750000
vt 0.375000 1.000000
vt 0.375000 0.750000
vt 0.875000 0.000000
vt 0.125000 0.250000
vt 0.125000 0.000000
vt 0.375000 0.250000
vt 0.625000 0.000000
vt 0.375000 0.000000
vt 0.375000 0.500000
vt 0.625000 0.250000
vt 0.375000 1.000000
vt 0.625000 0.750000
vt 0.375000 0.750000
vt 0.875000 0.000000
vt 0.125000 0.250000
vt 0.125000 0.000000
vt 0.625000 0.500000
vt 0.375000 0.750000
vt 0.375000 0.500000
vt 0.625000 0.000000
vt 0.375000 0.250000
vt 0.375000 0.000000
vt 0.625000 0.250000
vt 0.375000 0.500000
vt 0.625000 0.750000
vt 0.375000 1.000000
vt 0.375000 0.750000
vt 0.875000 0.000000
vt 0.125000 0.250000
vt 0.125000 0.000000
vt 0.375000 0.750000
vt 0.625000 0.500000
vt 0.375000 0.500000
vt 0.625000 0.387248
vt 0.375000 0.387248
vt 0.375000 0.387248
vt 0.625000 0.387248
vt 0.625000 0.387248
vt 0.625000 0.387248
vt 0.375000 0.387248
vt 0.375000 0.387248
vt 0.625000 0.500000
vt 0.625000 1.000000
vt 0.875000 0.250000
vt 0.625000 0.500000
vt 0.625000 1.000000
vt 0.875000 0.250000
vt 0.625000 0.500000
vt 0.625000 1.000000
vt 0.875000 0.250000
vt 0.625000 0.750000
vt 0.625000 0.500000
vt 0.625000 1.000000
vt 0.875000 0.250000
vt 0.625000 0.750000
vt 0.875000 0.000000
vt 0.625000 0.250000
vt 0.625000 0.000000
vt 0.625000 0.250000
vt 0.875000 0.000000
vt 0.625000 0.000000
vt 0.375000 0.250000
vt 0.625000 0.000000
vt 0.375000 0.000000
vt 0.375000 0.500000
vt 0.625000 0.250000
vt 0.375000 0.750000
vt 0.625000 0.500000
vt 0.625000 1.000000
vt 0.625000 0.750000
vt 0.875000 0.000000
vt 0.625000 0.000000
vt 0.375000 0.250000
vt 0.375000 0.000000
vt 0.625000 0.250000
vt 0.375000 0.500000
vt 0.625000 0.500000
vt 0.375000 0.750000
vt 0.625000 1.000000
vt 0.375000 1.000000
vt 0.875000 0.000000
vt 0.625000 0.000000
vt 0.375000 0.250000
vt 0.375000 0.000000
vt 0.625000 0.250000
vt 0.375000 0.500000
vt 0.625000 0.500000
vt 0.375000 0.750000
vt 0.875000 0.000000
vt 0.125000 0.000000
vt 0.125000 0.250000
vt 0.875000 0.250000
vt 0.875000 0.250000
vt 0.375000 1.000000
vt 0.875000 0.250000
vt 0.625000 0.750000
vt 0.875000 0.250000
vt 0.625000 0.750000
vt 0.875000 0.250000
vt 0.375000 0.000000
vt 0.427754 0.250000
vt 0.375000 0.250000
vt 0.427754 0.500000
vt 0.375000 0.500000
vt 0.375000 0.750000
vt 0.427754 0.750000
vt 0.375000 1.000000
vt 0.625000 0.500000
vt 0.589497 0.750000
vt 0.589497 0.500000
vt 0.589497 1.000000
vt 0.625000 0.750000
vt 0.625000 1.000000
vt 0.589497 0.000000
vt 0.589497 0.250000
vt 0.375000 0.000000
vt 0.427754 0.250000
vt 0.427754 0.000000
vt 0.375000 0.250000
vt 0.427754 0.500000
vt 0.375000 0.750000
vt 0.375000 0.500000
vt 0.375000 1.000000
vt 0.427754 0.750000
vt 0.589497 0.750000
vt 0.625000 0.500000
vt 0.589497 0.500000
vt 0.589497 1.000000
vt 0.625000 0.750000
vt 0.589497 0.000000
vt 0.589497 0.250000
vt 0.375000 0.250000
vt 0.428499 0.000000
vt 0.375000 0.000000
vt 0.428499 0.500000
vt 0.428499 0.250000
vt 0.375000 0.500000
vt 0.428499 0.750000
vt 0.375000 1.000000
vt 0.375000 0.750000
vt 0.428499 0.000000
vt 0.375000 0.250000
vt 0.375000 0.000000
vt 0.428499 0.500000
vt 0.375000 0.500000
vt 0.428499 0.750000
vt 0.375000 0.750000
vt 0.375000 1.000000
vt 0.427754 0.000000
vt 0.427754 1.000000
vt 0.427754 1.000000
vt 0.625000 1.000000
vt 0.428499 1.000000
vt 0.428499 0.250000
vt 0.428499 1.000000
vt 0.625000 0.000000
vt 0.875000 0.250000
vt 0.875000 0.000000
vt 0.625000 0.000000
vt 0.875000 0.250000
vt 0.625000 0.250000
vt 0.375000 0.250000
vt 0.625000 0.500000
vt 0.375000 0.500000
vt 0.625000 0.750000
vt 0.375000 1.000000
vt 0.375000 0.750000
vt 0.875000 0.000000
vt 0.625000 0.250000
vt 0.625000 0.000000
vt 0.375000 0.000000
vt 0.125000 0.250000
vt 0.125000 0.000000
vt 0.625000 0.500000
vt 0.375000 0.500000
vt 0.625000 0.750000
vt 0.375000 0.750000
vt 0.375000 0.250000
vt 0.625000 0.500000
vt 0.625000 0.250000
vt 0.375000 1.000000
vt 0.625000 0.750000
vt 0.375000 0.750000
vt 0.875000 0.000000
vt 0.625000 0.000000
vt 0.125000 0.250000
vt 0.375000 0.000000
vt 0.125000 0.000000
vt 0.625000 0.500000
vt 0.375000 0.500000
vt 0.625000 0.750000
vt 0.375000 0.750000
vt 0.625000 0.000000
vt 0.375000 0.250000
vt 0.375000 0.000000
vt 0.625000 0.250000
vt 0.375000 0.357581
vt 0.625000 0.500000
vt 0.375000 0.750000
vt 0.375000 0.500000
vt 0.625000 1.000000
vt 0.625000 0.750000
vt 0.625000 0.500000
vt 0.375000 0.500000
vt 0.625000 0.250000
vt 0.875000 0.000000
vt 0.625000 1.000000
vt 0.875000 0.250000
vt 0.375000 0.500000
vt 0.625000 1.000000
vt 0.875000 0.250000
vt 0.625000 0.357581
vt 0.375000 1.000000
vt 0.625000 0.500000
vt 0.625000 0.750000
vt 0.625000 0.500000
vt 0.625000 0.750000
vt 0.625000 1.000000
vt 0.762248 0.250000
vt 0.875000 0.000000
vt 0.875000 0.250000
vt 0.267420 0.250000
vt 0.125000 0.000000
vt 0.732580 0.250000
vt 0.237752 0.250000
vt 0.125000 0.250000
vt 0.625000 1.000000
vn 0.0000 0.0000 1.0000
vn 0.0000 1.0000 0.0000
vn 0.0000 -1.0000 -0.0000
vn -1.0000 0.0000 0.0000
vn 1.0000 0.0000 0.0000
vn 0.0000 0.0000 -1.0000
vn 0.0000 0.7841 0.6206
vn 0.8805 0.4381 0.1812
vn 0.0000 0.9523 0.3053
vn -0.8813 0.4628 0.0959
vn 0.8813 0.4628 0.0959
vn -0.8805 0.4381 0.1812
vn -0.8083 -0.4016 0.4305
vn -0.6129 0.7844 0.0953
vn 0.4445 -0.8945 -0.0473
vn -0.8830 -0.4388 0.1664
vn 0.8083 -0.4016 0.4305
vn 0.6129 0.7844 0.0953
vn -0.5079 -0.8607 -0.0343
vn 0.8830 -0.4388 0.1664
vn 0.0000 0.9467 0.3222
vn 0.0000 -0.1153 -0.9933
vn 0.9818 0.1865 0.0366
vn -0.9759 0.2183 -0.0018
vn -0.4408 0.8871 0.1373
vn 0.5079 -0.8607 -0.0343
vn 0.4408 0.8871 0.1373
vn -0.4445 -0.8945 -0.0473
vn 0.9759 0.2183 -0.0018
vn -0.9818 0.1865 0.0366
vn -0.4413 -0.0000 0.8973
vn 0.4876 0.8687 0.0872
vn 0.5129 0.8536 0.0907
vn 0.5097 0.8545 0.1005
vn 0.7690 0.0000 -0.6392
vn -0.4785 -0.8740 -0.0847
vn -0.4537 -0.8874 -0.0811
vn -0.4754 -0.8748 -0.0938
vn -0.4713 -0.8814 -0.0325
vn -0.5258 -0.8503 -0.0225
vn -0.4810 -0.8767 0.0000
vn 0.5061 0.8618 0.0349
vn 0.5611 0.8274 0.0239
vn 0.5213 0.8514 0.0588
vn 0.4413 -0.0000 0.8973
vn -0.4876 0.8687 0.0872
vn -0.5129 0.8536 0.0907
vn -0.5043 0.8607 0.0700
vn -0.7690 0.0000 -0.6392
vn 0.4537 -0.8874 -0.0811
vn 0.4785 -0.8740 -0.0847
vn 0.4754 -0.8748 -0.0938
vn 0.4713 -0.8814 -0.0325
vn 0.5258 -0.8503 -0.0225
vn 0.4864 -0.8720 -0.0550
vn -0.5611 0.8274 0.0239
vn -0.5061 0.8618 0.0349
vn -0.5213 0.8514 0.0588
vn 0.0030 -0.0000 1.0000
vn 0.0036 -0.0000 1.0000
vn 0.3561 0.9342 -0.0242
vn 0.3514 0.9359 -0.0242
vn 0.3561 0.9339 -0.0315
vn -0.5589 0.1695 -0.8117
vn -0.5671 0.1457 -0.8107
vn -0.5681 0.1412 -0.8108
vn -0.3953 -0.9181 0.0293
vn -0.4085 -0.9121 0.0356
vn -0.4064 -0.9129 0.0373
vn -0.0036 -0.0000 1.0000
vn -0.0030 -0.0000 1.0000
vn -0.3561 0.9342 -0.0242
vn -0.3514 0.9359 -0.0242
vn -0.3512 0.9360 -0.0211
vn 0.5589 0.1695 -0.8117
vn 0.5671 0.1457 -0.8107
vn 0.5588 0.1739 -0.8109
vn 0.4085 -0.9121 0.0356
vn 0.3953 -0.9181 0.0293
vn 0.4064 -0.9129 0.0373
vn 0.5043 0.8607 0.0700
vn -0.4700 -0.8803 -0.0650
vn -0.4864 -0.8720 -0.0550
vn 0.5158 0.8567 0.0000
vn -0.5097 0.8545 0.1005
vn 0.4700 -0.8803 -0.0650
vn 0.4810 -0.8767 0.0000
vn -0.5158 0.8567 0.0000
vn 0.0040 -0.0000 1.0000
vn 0.3512 0.9360 -0.0211
vn -0.5588 0.1739 -0.8109
vn -0.4043 -0.9140 0.0348
vn -0.0040 -0.0000 1.0000
vn -0.3561 0.9339 -0.0315
vn 0.5681 0.1412 -0.8108
vn 0.4043 -0.9140 0.0348
vn 0.4378 0.8627 0.2529
vn -0.4378 -0.8627 0.2529
vn 0.8627 -0.4378 0.2529
vn -0.8627 0.4378 0.2529
vn -0.4111 -0.8101 -0.4181
vn -0.8101 0.4111 -0.4181
vn 0.4111 0.8101 -0.4181
vn 0.8101 -0.4111 -0.4181
vn -0.4378 0.8627 0.2529
vn 0.4378 -0.8627 0.2529
vn -0.8627 -0.4378 0.2529
vn 0.8627 0.4378 0.2529
vn 0.4111 -0.8101 -0.4181
vn 0.8101 0.4111 -0.4181
vn -0.4111 0.8101 -0.4181
vn -0.8101 -0.4111 -0.4181
vn 0.0000 -0.2969 0.9549
vn 0.0000 0.9974 0.0721
vn 0.0000 -0.9999 -0.0130
vn 0.0000 0.9973 0.0733
vn 0.9109 0.3990 0.1053
vn 0.0000 -0.7150 -0.6991
vn -0.8197 0.5724 0.0178
vn 0.8197 0.5724 0.0178
vn -0.9109 0.3990 0.1053
vn 0.3582 0.9326 -0.0441
vn 0.3657 0.9286 -0.0625
vn -0.6040 0.0088 -0.7969
vn -0.4162 -0.9081 0.0473
vn 0.0047 -0.0000 1.0000
vn -0.3582 0.9326 -0.0441
vn 0.6040 0.0088 -0.7969
vn 0.4162 -0.9081 0.0473
vn 0.4214 -0.9048 0.0609
vn -0.0047 -0.0000 1.0000
vn 0.9732 -0.2235 0.0541
vn 0.9717 -0.2297 0.0560
vn 0.9701 -0.2357 0.0574
vn -0.9764 -0.2090 0.0540
vn -0.9750 -0.2160 0.0526
vn -0.9717 -0.2297 0.0560
vn 0.9750 -0.2160 0.0526
vn 0.9764 -0.2090 0.0540
vn -0.9732 -0.2235 0.0541
vn -0.9701 -0.2357 0.0574
vn -0.6058 0.0000 -0.7956
vn -0.4214 -0.9048 0.0609
vn -0.3657 0.9286 -0.0625
vn 0.6058 0.0000 -0.7956
vn -0.9766 -0.2083 0.0541
vn 0.9766 -0.2083 0.0541
usemtl lambert4SG
s off
f 2/1/1 4/2/1 1/3/1
f 5/4/2 3/5/2 2/1/2
f 1/6/3 8/7/3 7/8/3
f 3/5/4 8/9/4 4/2/4
f 5/10/5 1/3/5 7/11/5
f 10/12/1 12/13/1 9/14/1
f 11/15/2 14/16/2 12/13/2
f 16/17/3 9/18/3 15/19/3
f 16/20/5 11/15/5 10/12/5
f 9/14/4 14/21/4 15/22/4
f 90/23/1 92/24/1 89/25/1
f 93/26/2 91/27/2 90/23/2
f 89/28/3 96/29/3 95/30/3
f 91/27/4 96/31/4 92/24/4
f 93/32/5 89/25/5 95/33/5
f 102/34/6 104/35/6 101/36/6
f 114/37/1 116/38/1 113/39/1
f 115/40/2 118/41/2 116/38/2
f 120/42/3 113/43/3 119/44/3
f 120/45/5 115/40/5 114/37/5
f 113/39/4 118/46/4 119/47/4
f 126/48/6 128/49/6 125/50/6
f 149/51/7 161/52/7 150/53/7
f 155/54/8 157/55/8 160/56/8
f 156/57/9 160/56/9 157/55/9
f 161/52/10 162/58/10 150/53/10
f 155/54/11 160/56/11 149/51/11
f 156/57/12 162/58/12 161/52/12
f 2/1/1 3/5/1 4/2/1
f 5/4/2 6/59/2 3/5/2
f 1/6/3 4/60/3 8/7/3
f 3/5/4 6/61/4 8/9/4
f 5/10/5 2/1/5 1/3/5
f 10/12/1 11/15/1 12/13/1
f 11/15/2 13/62/2 14/16/2
f 16/17/3 10/63/3 9/18/3
f 16/20/5 13/64/5 11/15/5
f 9/14/4 12/13/4 14/21/4
f 90/23/1 91/27/1 92/24/1
f 93/26/2 94/65/2 91/27/2
f 89/28/3 92/66/3 96/29/3
f 91/27/4 94/67/4 96/31/4
f 93/32/5 90/23/5 89/25/5
f 102/34/6 103/68/6 104/35/6
f 114/37/1 115/40/1 116/38/1
f 115/40/2 117/69/2 118/41/2
f 120/42/3 114/70/3 113/43/3
f 120/45/5 117/71/5 115/40/5
f 113/39/4 116/38/4 118/46/4
f 126/48/6 127/72/6 128/49/6
f 149/51/7 160/56/7 161/52/7
f 156/57/9 161/52/9 160/56/9
usemtl lambert3SG
f 26/73/5 28/74/5 25/75/5
f 42/76/4 44/77/4 41/78/4
f 50/79/13 52/80/13 49/81/13
f 53/82/14 51/83/14 50/79/14
f 55/84/6 54/85/6 53/82/6
f 55/84/15 52/86/15 56/87/15
f 51/83/16 56/88/16 52/80/16
f 58/89/17 60/90/17 57/91/17
f 59/92/18 62/93/18 60/90/18
f 61/94/6 64/95/6 62/93/6
f 64/95/19 58/96/19 57/97/19
f 63/98/20 59/92/20 58/89/20
f 138/99/21 140/100/21 137/101/21
f 139/102/2 142/103/2 140/100/2
f 141/104/22 144/105/22 142/103/22
f 143/106/23 139/102/23 138/99/23
f 144/107/24 140/100/24 142/108/24
f 26/73/5 27/109/5 28/74/5
f 42/76/4 43/110/4 44/77/4
f 50/79/13 51/83/13 52/80/13
f 53/82/25 54/85/25 51/83/25
f 55/84/6 56/87/6 54/85/6
f 55/84/26 49/111/26 52/86/26
f 51/83/16 54/112/16 56/88/16
f 58/89/17 59/92/17 60/90/17
f 59/92/27 61/94/27 62/93/27
f 61/94/6 63/113/6 64/95/6
f 64/95/28 63/113/28 58/96/28
f 63/98/20 61/114/20 59/92/20
f 138/99/21 139/102/21 140/100/21
f 139/102/2 141/104/2 142/103/2
f 141/104/22 143/115/22 144/105/22
f 143/106/29 141/116/29 139/102/29
f 144/107/30 137/101/30 140/100/30
s 1
f 17/117/31 19/118/31 20/119/31
f 20/119/32 21/120/33 22/121/34
f 21/120/35 24/122/35 22/121/35
f 23/123/36 17/124/37 24/122/38
f 27/125/35 30/126/35 29/127/35
f 31/128/39 26/129/40 25/130/41
f 31/131/31 28/74/31 32/132/31
f 32/132/42 27/125/43 29/127/44
f 33/133/45 35/134/45 36/135/45
f 34/136/46 38/137/47 35/134/48
f 39/138/49 38/137/49 37/139/49
f 33/140/50 40/141/51 39/138/52
f 45/142/49 43/143/49 46/144/49
f 47/145/53 44/146/54 45/142/55
f 42/76/45 47/147/45 48/148/45
f 43/143/56 48/148/57 46/144/58
f 66/149/59 68/150/60 65/151/59
f 66/149/61 70/152/62 67/153/63
f 69/154/64 72/155/65 70/152/66
f 65/156/67 72/155/68 71/157/69
f 78/158/70 80/159/71 77/160/71
f 80/159/72 81/161/73 82/162/74
f 82/162/75 83/163/76 84/164/77
f 83/163/78 77/165/79 84/164/80
f 17/117/31 18/166/31 19/118/31
f 20/119/32 19/118/81 21/120/33
f 21/120/35 23/123/35 24/122/35
f 23/123/36 18/167/82 17/124/37
f 27/125/35 26/129/35 30/126/35
f 31/128/39 30/126/83 26/129/40
f 31/131/31 25/75/31 28/74/31
f 32/132/42 28/74/84 27/125/43
f 33/133/45 34/136/45 35/134/45
f 34/136/46 37/139/85 38/137/47
f 39/138/49 40/141/49 38/137/49
f 33/140/50 36/168/86 40/141/51
f 45/142/49 44/146/49 43/143/49
f 47/145/53 41/169/87 44/146/54
f 42/76/45 41/78/45 47/147/45
f 43/143/56 42/76/88 48/148/57
f 66/149/59 67/153/89 68/150/60
f 66/149/61 69/154/90 70/152/62
f 69/154/64 71/157/91 72/155/65
f 65/156/67 68/170/92 72/155/68
f 78/158/70 79/171/93 80/159/71
f 80/159/72 79/171/94 81/161/73
f 82/162/75 81/161/95 83/163/76
f 83/163/78 78/172/96 77/165/79
usemtl lambert2SG
s off
f 73/173/4 75/174/4 76/175/4
f 85/176/5 87/177/5 88/178/5
f 97/179/97 99/180/97 100/181/97
f 106/182/98 108/183/98 105/184/98
f 106/185/99 98/186/99 107/187/99
f 108/188/100 100/189/100 105/190/100
f 109/191/101 101/36/101 110/192/101
f 111/193/102 102/34/102 109/191/102
f 111/193/103 104/35/103 103/68/103
f 110/192/104 104/35/104 112/194/104
f 121/195/105 123/196/105 124/197/105
f 130/198/106 132/199/106 129/200/106
f 124/197/107 132/201/107 131/202/107
f 122/203/108 130/204/108 129/205/108
f 125/50/109 134/206/109 133/207/109
f 134/206/110 127/72/110 135/208/110
f 135/208/111 126/48/111 136/209/111
f 126/48/112 133/207/112 136/209/112
f 146/210/113 148/211/113 145/212/113
f 147/213/114 150/214/114 148/211/114
f 152/215/6 154/216/6 151/217/6
f 146/218/115 154/216/115 153/219/115
f 156/57/116 158/220/116 159/221/116
f 152/215/117 157/55/117 155/54/117
f 151/217/118 158/220/118 152/215/118
f 151/217/119 156/57/119 159/221/119
f 73/173/4 74/222/4 75/174/4
f 85/176/5 86/223/5 87/177/5
f 97/179/97 98/186/97 99/180/97
f 106/182/98 107/224/98 108/183/98
f 106/185/99 99/225/99 98/186/99
f 108/188/100 97/179/100 100/189/100
f 109/191/101 102/34/101 101/36/101
f 111/193/102 103/68/102 102/34/102
f 111/193/103 112/194/103 104/35/103
f 110/192/104 101/36/104 104/35/104
f 121/195/105 122/226/105 123/196/105
f 130/198/106 131/227/106 132/199/106
f 124/197/107 123/228/107 132/201/107
f 122/203/108 121/195/108 130/204/108
f 125/50/109 128/49/109 134/206/109
f 134/206/110 128/49/110 127/72/110
f 135/208/111 127/72/111 126/48/111
f 126/48/112 125/50/112 133/207/112
f 146/210/113 147/213/113 148/211/113
f 147/213/114 149/229/114 150/214/114
f 152/215/6 153/219/6 154/216/6
f 146/218/115 145/230/115 154/216/115
f 156/57/116 157/55/116 158/220/116
f 152/215/120 158/220/120 157/55/120
f 151/217/118 159/221/118 158/220/118
f 151/217/121 162/58/121 156/57/121
s 1
f 29/127/35 23/123/35 21/120/35
f 18/167/82 30/126/83 31/128/39
f 18/166/31 32/132/31 19/118/31
f 19/118/81 29/127/44 21/120/33
f 40/141/49 46/144/49 38/137/49
f 36/168/86 45/142/55 40/141/51
f 48/148/45 36/135/45 35/134/45
f 46/144/58 35/134/48 38/137/47
f 67/153/63 75/231/122 74/222/123
f 76/232/124 70/152/66 72/155/65
f 68/170/92 76/232/125 72/155/68
f 67/153/89 73/173/126 68/150/60
f 79/171/94 87/233/127 81/161/73
f 81/161/95 86/234/128 83/163/76
f 78/172/96 86/234/129 85/235/130
f 79/171/93 85/176/131 88/178/131
f 99/180/6 110/192/6 100/181/6
f 99/180/6 111/193/6 109/191/6
f 106/182/6 112/194/6 111/193/6
f 100/181/6 112/194/6 105/184/6
f 133/207/6 123/196/6 122/226/6
f 134/206/6 132/199/6 123/196/6
f 135/208/6 129/200/6 132/199/6
f 136/209/6 122/226/6 129/200/6
f 155/236/132 153/237/133 152/238/134
f 145/212/135 150/239/136 154/240/137
f 149/241/138 146/210/139 153/237/133
f 154/240/137 162/242/140 151/243/141
f 155/236/132 149/241/138 153/237/133
f 154/240/137 150/239/136 162/242/140
f 29/127/35 30/126/35 23/123/35
f 18/167/82 23/123/36 30/126/83
f 18/166/31 31/131/31 32/132/31
f 19/118/81 32/132/42 29/127/44
f 40/141/49 45/142/49 46/144/49
f 36/168/86 47/145/53 45/142/55
f 48/148/45 47/147/45 36/135/45
f 46/144/58 48/148/57 35/134/48
f 67/153/63 70/152/62 75/231/122
f 76/232/124 75/231/142 70/152/66
f 68/170/92 73/244/143 76/232/125
f 67/153/89 74/222/126 73/173/126
f 79/171/94 88/178/144 87/233/127
f 81/161/95 87/233/145 86/234/128
f 78/172/96 83/163/78 86/234/129
f 79/171/93 78/158/70 85/176/131
f 99/180/6 109/191/6 110/192/6
f 99/180/6 106/182/6 111/193/6
f 106/182/6 105/184/6 112/194/6
f 100/181/6 110/192/6 112/194/6
f 133/207/6 134/206/6 123/196/6
f 134/206/6 135/208/6 132/199/6
f 135/208/6 136/209/6 129/200/6
f 136/209/6 133/207/6 122/226/6
f 145/212/135 148/211/146 150/239/136
f 149/241/138 147/213/147 146/210/139
