# Blender 4.5.9 LTS
# www.blender.org
mtllib dralthi.mtl
o dralthi
v 3.970244 0.639052 2.913397
v 3.845307 0.638182 2.926562
v 3.739509 0.491434 2.950025
v 3.931674 0.371947 2.978713
v 3.372193 0.719705 2.966803
v 4.082718 0.799103 2.939755
v 4.054772 0.244334 2.976837
v 3.987638 0.393578 2.917464
v 3.373691 0.344249 2.963567
v 2.903295 0.286386 2.464699
v 2.915809 0.681711 2.401247
v 2.837050 0.612177 2.449491
v 2.698401 0.410633 2.432845
v 2.859121 0.475973 2.414757
v 2.329362 0.683894 2.397705
v 2.310835 0.352729 2.436954
v 2.299708 0.569783 1.582456
v 2.302634 0.275949 1.903587
v 2.931994 0.272533 1.892806
v 2.934107 0.420623 2.357252
v 3.793446 0.584891 0.445265
v 3.626206 0.588952 0.445018
v 3.689350 0.409893 0.456002
v 3.869896 0.609913 0.303131
v 3.604433 0.641778 0.302404
v 3.426985 0.440998 0.311284
v 3.723400 0.401499 0.317874
v 3.940820 0.368327 0.320312
v 3.345119 0.180366 1.557776
v 4.058272 0.180863 1.538570
v 3.327980 0.419309 2.354772
v 3.329800 0.468050 1.584494
v 3.372211 0.835822 1.244999
v 3.340301 0.852502 2.521027
v 3.333536 0.701137 2.282500
v 4.151856 0.398436 2.364934
v 4.071546 0.865450 2.490966
v 4.081131 0.673382 2.272697
v 4.045048 0.820085 1.194412
v 4.159569 0.493568 1.581813
v 2.933246 0.628032 1.565965
v 2.443541 0.419973 0.795032
v 2.658362 0.375002 0.816126
v 2.552849 0.339114 0.635816
v 2.794814 0.328389 0.623565
v 2.824473 0.366184 0.797732
v 2.413613 0.319860 0.804468
v 2.604614 0.337647 0.813405
v 2.622195 0.395977 0.716057
v 2.366035 0.711707 1.626426
v 2.070779 0.431136 1.488376
v 2.061544 0.733576 2.319696
v 2.059678 0.426484 2.358357
v 0.724220 0.106963 -0.019432
v 0.173286 0.283185 2.205918
v 1.409219 0.323980 3.441514
v 2.056153 0.303262 3.552350
v 0.994470 0.338444 3.205805
v 0.128327 0.203688 0.966398
v 2.010435 0.579140 1.470706
v 2.061756 0.579395 2.567576
v 0.787842 0.321745 0.634731
v 0.678037 0.363783 1.751599
v 1.614844 0.627735 1.707296
v 1.657889 0.558940 2.378158
v 0.855177 0.506946 1.699611
v 0.332673 0.296681 0.949111
v 0.281053 0.353693 1.590547
v 0.985744 0.429255 2.863599
v 1.618360 0.721307 2.182414
v 2.443183 0.339888 0.622354
v 2.689645 0.333578 0.637151
v 5.874347 0.278162 1.789306
v 5.923734 0.186186 1.017679
v 6.012066 0.237945 2.166859
v 5.359343 0.343661 2.720367
v 5.673805 0.277427 2.112127
v 4.629428 0.665715 2.212785
v 4.574326 0.535157 2.442445
v 4.728123 0.493193 1.833437
v 4.513573 0.595809 1.578464
v 6.090585 0.165028 2.228110
v 4.197787 0.266024 3.551018
v 5.406318 0.219988 3.148493
v 4.752069 0.251614 3.476079
v 6.136097 0.088337 1.029741
v 5.551852 0.028958 -0.025456
v 5.468616 0.168667 0.592309
v 4.202754 0.327990 1.385766
v 4.208385 0.686325 1.528182
v 4.210242 0.593471 2.388381
v 5.412507 0.329835 0.781577
v 3.728574 0.589025 0.277552
v 3.782933 0.464197 0.284427
v 3.621539 0.476027 0.280627
v 3.706542 0.525946 0.527900
v 2.428709 0.628947 2.385278
v 2.867103 0.616191 2.357405
v 2.581141 0.539652 2.423058
v 2.345485 0.421168 2.360079
v 2.467874 0.397703 2.432875
v 2.379119 0.516530 2.414927
v 2.839741 0.363147 2.365785
v 2.627415 0.427121 2.365725
v 2.624804 0.552893 2.355731
v 2.691190 0.570642 2.415905
v 3.406935 0.631318 2.889673
v 3.616500 0.391601 2.921559
v 3.686297 0.594588 2.967465
v 3.786370 0.374871 2.906658
v 3.703179 0.606439 2.890103
v 3.435914 0.590319 2.934067
v 3.476348 0.413775 2.928380
v 3.623288 0.587716 2.895236
v 3.903085 0.426503 2.908007
vn -0.0336 -0.3840 0.9227
vn 0.0599 -0.2030 0.9773
vn -0.3334 0.0796 0.9394
vn -0.7087 -0.0385 0.7044
vn 0.0384 0.3842 0.9224
vn -0.0187 -0.0611 0.9980
vn -0.9999 0.0059 0.0145
vn 1.0000 -0.0060 -0.0026
vn 0.9818 -0.1824 0.0537
vn 0.9552 0.0172 0.2954
vn 0.1161 0.9614 -0.2495
vn 0.0079 0.9798 -0.1998
vn 0.0146 -0.0570 -0.9983
vn 0.0004 -0.0708 -0.9975
vn 0.0850 0.4938 -0.8654
vn -0.1332 -0.9683 -0.2112
vn -0.0034 -0.9884 -0.1518
vn -0.9986 -0.0526 -0.0057
vn -0.9858 -0.0373 -0.1636
vn -0.9974 0.0009 0.0716
vn -0.9972 -0.0046 0.0743
vn -0.9739 -0.2223 0.0457
vn -0.9955 0.0915 -0.0252
vn -0.9960 0.0855 -0.0260
vn -0.9996 0.0232 0.0136
vn 0.9856 0.1693 0.0005
vn 0.9695 0.2036 -0.1366
vn 0.9968 0.0759 -0.0230
vn 0.9375 0.3477 0.0159
vn 0.8692 -0.2203 -0.4427
vn 0.9521 -0.3046 -0.0276
vn 0.8841 -0.4667 0.0227
vn 0.9884 -0.0400 0.1467
vn -0.0649 0.9958 -0.0653
vn 0.3692 0.8809 -0.2961
vn -0.0037 -0.9980 -0.0632
vn -0.3540 -0.9048 -0.2368
vn 0.2768 -0.1408 0.9506
vn 0.0069 0.2483 0.9687
vn 0.1397 0.9901 0.0152
vn -0.1023 0.9500 0.2951
vn -0.0069 -0.9964 -0.0845
vn 0.1115 -0.9934 -0.0284
vn -0.2566 0.1223 0.9588
vn -0.2618 0.1280 0.9566
vn -0.2042 -0.9494 -0.2385
vn 0.5174 -0.8557 0.0020
vn -0.3919 0.8632 -0.3184
vn 0.2206 0.9648 -0.1431
vn 0.9241 0.3623 -0.1215
vn 0.9999 -0.0155 0.0014
vn 1.0000 -0.0067 -0.0050
vn 0.0990 -0.9929 -0.0662
vn 0.3001 -0.9146 0.2711
vn 0.0685 -0.9962 -0.0531
vn -0.0143 -0.9946 -0.1027
vn 0.2035 -0.9774 0.0568
vn 0.0564 -0.9975 0.0431
vn 0.0474 -0.9989 -0.0047
vn -0.1572 0.9813 0.1107
vn -0.1387 0.8985 -0.4164
vn -0.0940 0.9818 -0.1648
vn -0.6454 0.7634 -0.0256
vn -0.4195 0.9006 -0.1138
vn -0.2451 0.9279 -0.2808
vn -0.4137 0.8472 -0.3332
vn -0.2378 0.9656 -0.1050
vn -0.1053 0.9874 0.1179
vn -0.1323 0.9879 0.0808
vn -0.2735 0.9572 0.0946
vn -0.1634 0.9737 -0.1590
vn -0.0154 0.9628 0.2699
vn -0.1129 0.9596 0.2575
vn -0.0722 0.9706 0.2297
vn -0.9816 -0.1860 0.0439
vn -0.2211 0.7282 0.6487
vn -0.2792 0.8153 0.5073
vn -0.1674 0.9824 0.0832
vn -0.5094 0.8284 0.2328
vn -0.1219 -0.9805 0.1543
vn 0.2057 -0.9771 0.0552
vn 0.5426 0.1220 -0.8311
vn -0.1168 -0.9828 0.1433
vn -0.0050 -0.9997 0.0240
vn 0.0035 0.9993 0.0362
vn 0.1393 0.9884 -0.0606
vn 0.9893 -0.1007 -0.1057
vn -0.9399 0.2601 -0.2212
vn -0.9867 -0.1241 -0.1046
vn -0.8472 0.4717 -0.2445
vn 0.1047 0.9414 -0.3206
vn 0.1340 0.9320 -0.3367
vn -0.0720 -0.9811 -0.1796
vn 0.5454 -0.7588 -0.3561
vn -0.3380 -0.7791 -0.5279
vn -0.9538 0.2734 -0.1248
vn 0.0063 1.0000 0.0064
vn 0.4554 0.8073 -0.3753
vn 0.0063 -0.9941 -0.1083
vn 0.0943 -0.9949 -0.0357
vn -0.5386 0.7953 -0.2782
vn 0.0204 0.9763 -0.2153
vn 0.0273 0.9749 -0.2209
vn -0.0494 -0.9988 -0.0008
vn 0.1396 -0.9723 0.1872
vn -0.0115 0.9891 0.1465
vn -0.0953 0.9521 0.2905
vn -0.1464 -0.9822 0.1175
vn 0.0019 -0.9990 0.0441
vn 0.4149 0.8662 -0.2785
vn 0.4209 0.9035 -0.0808
vn 0.4479 0.8915 -0.0684
vn 0.3398 0.9128 0.2264
vn 0.1891 0.9813 0.0356
vn 0.1408 0.9552 0.2605
vn -0.2293 -0.9668 -0.1128
vn -0.0868 -0.9932 -0.0774
vn 0.9697 0.0192 0.2436
vn 0.6023 0.7740 -0.1953
vn -0.9655 -0.2497 -0.0736
vn 0.2533 0.3539 -0.9004
vn 0.0630 0.8610 0.5046
vn 0.3490 0.9335 0.0821
vn 0.2121 0.9772 -0.0138
vn 0.3730 0.8886 -0.2669
vn 0.6888 0.7247 -0.0202
vn 0.4973 0.8057 0.3216
vn 0.1786 0.9834 -0.0314
vn 0.2190 0.9743 0.0526
vn 0.1130 0.9561 0.2705
vn 0.3089 0.9465 -0.0930
vn 0.1638 0.9582 0.2347
vn 0.0595 0.9652 0.2545
vn -0.2355 -0.9543 0.1841
vn -0.1797 -0.9792 0.0943
vn -0.2733 -0.9606 0.0511
vn -0.0924 -0.9924 -0.0812
vn -0.0406 -0.9932 -0.1093
vn -0.0742 -0.9939 0.0811
vn -0.0678 -0.9954 0.0681
vn -0.2922 0.7583 -0.5827
vn -0.3339 0.6665 -0.6665
vn -0.9580 0.2786 0.0682
vn -0.9670 0.2531 0.0294
vn -0.9334 0.1451 -0.3281
vn -0.9765 -0.2127 -0.0355
vn -0.6306 0.0962 0.7702
vn 0.6062 0.7838 -0.1352
vn 0.9943 -0.0338 -0.1011
vn 0.9350 0.2571 -0.2444
vn -0.9979 0.0111 -0.0632
vn -0.7201 0.6229 -0.3056
vn 0.9433 0.3313 -0.0213
vn 0.8752 0.4455 0.1887
vn -0.8413 0.4859 -0.2369
vn -0.7835 0.5275 -0.3285
vn -0.0236 -0.9823 -0.1856
vn -0.1116 -0.9373 -0.3301
vn 0.8275 -0.4737 0.3014
vn -0.0612 -0.9415 -0.3314
vn -0.9203 -0.3099 0.2390
vn -0.6683 0.6219 -0.4082
vn 0.0242 0.9996 0.0153
vn 0.8724 0.3618 -0.3285
vn -0.8982 -0.4010 -0.1801
vn 0.7202 -0.6851 -0.1093
vn 0.0765 0.9719 -0.2225
vn 0.0207 0.9992 -0.0354
vn -0.0183 0.9997 -0.0135
vn -0.9023 0.4302 -0.0274
vn 0.0630 0.8076 0.5863
vn 0.0775 0.7271 0.6822
vn 0.0470 -0.1388 0.9892
vn 0.9125 -0.0026 0.4090
vn -0.0067 -0.2322 0.9727
vn 0.0353 -0.5738 0.8182
vn 0.8319 0.0611 0.5515
vn 0.4155 -0.2715 0.8682
vn 0.0267 -0.9374 -0.3471
vn -0.5299 -0.2746 0.8024
vn -0.9198 0.3802 -0.0970
vn 0.3828 0.8274 0.4110
vn -0.7972 0.1059 0.5944
vn -0.7528 0.1275 0.6458
vn 0.9847 -0.1109 -0.1341
vn 0.2690 -0.4220 0.8658
vn -0.2878 -0.9551 0.0697
vn -0.6805 0.0467 0.7312
vn -0.6774 0.0443 0.7343
vn -0.2527 0.9675 -0.0066
vn -0.2642 0.9635 -0.0442
vn 0.9471 0.0738 0.3123
vn 0.0548 -0.2356 0.9703
vn -0.0526 0.1106 0.9925
vn 0.0677 0.1081 0.9918
vn -0.1436 -0.2663 0.9531
vn -0.0709 0.2835 0.9563
vn 0.9118 0.0001 0.4106
vn -0.0224 -0.6623 0.7489
vn 0.9245 -0.3513 0.1479
vn -0.8971 -0.2178 0.3844
vn 0.0623 0.7531 0.6549
vn -0.0360 0.9890 0.1436
vn 0.7256 0.0628 0.6852
vn 0.1028 -0.9637 -0.2464
vn -0.4025 -0.4569 0.7932
vn -0.9352 -0.3424 -0.0902
vn -0.3066 0.3618 0.8804
vn -0.0599 0.8567 -0.5123
vn 0.0980 0.3304 0.9387
vn 0.1751 0.2264 0.9582
vn 0.0972 0.1057 0.9896
vn -0.0869 0.9915 -0.0970
vn 0.1110 0.2773 0.9543
vn 0.2031 0.0150 0.9790
vn 0.2416 -0.0191 0.9702
vn 0.1050 -0.0584 0.9928
vn 0.4266 0.7913 0.4380
vn -0.8181 0.2453 0.5201
vn 0.0049 -0.9959 0.0905
vn 0.0688 0.1304 0.9891
vn -0.7540 0.1129 0.6470
vn 0.0328 0.9806 -0.1934
vn 0.0133 0.9836 -0.1797
vn 0.3047 0.9390 -0.1591
vn -0.1253 0.9864 0.1067
s 0
usemtl Material.001
f 107//1 111//1 1//1
f 5//2 1//2 6//2
f 6//3 1//3 7//3
f 7//4 1//4 8//4
f 7//5 8//5 9//5
f 103//6 104//6 100//6
f 16//7 17//7 18//7
f 19//8 41//8 20//8
f 19//9 20//9 10//9
f 10//10 20//10 11//10
f 24//11 25//11 39//11
f 39//12 25//12 33//12
f 27//13 26//13 25//13
f 27//14 24//14 28//14
f 26//15 27//15 28//15
f 26//16 28//16 29//16
f 29//17 28//17 30//17
f 31//18 32//18 29//18
f 29//19 32//19 33//19
f 5//20 34//20 31//20
f 5//21 31//21 9//21
f 9//22 31//22 29//22
f 33//23 32//23 35//23
f 33//24 35//24 34//24
f 34//25 35//25 31//25
f 6//26 36//26 37//26
f 37//27 36//27 38//27
f 37//28 38//28 39//28
f 39//29 38//29 40//29
f 39//30 40//30 30//30
f 30//31 40//31 36//31
f 30//32 36//32 7//32
f 7//33 36//33 6//33
f 41//34 11//34 35//34
f 41//35 35//35 32//35
f 31//36 20//36 32//36
f 32//37 20//37 41//37
f 11//38 20//38 35//38
f 35//39 20//39 31//39
f 42//40 46//40 49//40
f 46//41 47//41 48//41
f 19//42 18//42 46//42
f 46//43 18//43 47//43
f 52//44 53//44 15//44
f 15//45 53//45 16//45
f 16//46 53//46 17//46
f 17//47 53//47 51//47
f 52//48 17//48 51//48
f 17//49 52//49 15//49
f 60//50 52//50 51//50
f 61//51 57//51 53//51
f 61//52 53//52 52//52
f 56//53 55//53 63//53
f 59//54 54//54 62//54
f 53//55 56//55 63//55
f 57//56 56//56 53//56
f 59//57 62//57 63//57
f 51//58 63//58 62//58
f 51//59 53//59 63//59
f 64//60 66//60 65//60
f 60//61 66//61 64//61
f 60//62 62//62 66//62
f 55//63 68//63 59//63
f 67//64 59//64 68//64
f 62//65 54//65 67//65
f 67//66 54//66 59//66
f 66//67 67//67 68//67
f 61//68 65//68 69//68
f 69//69 65//69 66//69
f 66//70 68//70 69//70
f 62//71 67//71 66//71
f 56//72 57//72 61//72
f 58//73 56//73 69//73
f 69//74 56//74 61//74
f 70//75 64//75 65//75
f 70//76 65//76 52//76
f 52//77 65//77 61//77
f 58//78 68//78 55//78
f 58//79 69//79 68//79
f 56//80 58//80 55//80
f 55//81 59//81 63//81
f 62//82 60//82 51//82
f 16//83 18//83 10//83
f 10//84 18//84 19//84
f 15//85 11//85 50//85
f 50//86 11//86 41//86
f 41//87 19//87 46//87
f 17//88 42//88 47//88
f 17//89 47//89 18//89
f 50//90 42//90 17//90
f 42//91 50//91 41//91
f 42//92 41//92 46//92
f 46//93 43//93 49//93
f 43//94 48//94 49//94
f 48//95 42//95 49//95
f 47//96 42//96 71//96
f 44//97 71//97 48//97
f 48//98 71//98 42//98
f 71//99 44//99 47//99
f 47//100 44//100 48//100
f 48//101 43//101 72//101
f 45//102 72//102 46//102
f 46//103 72//103 43//103
f 72//104 45//104 48//104
f 48//105 45//105 46//105
f 37//106 34//106 6//106
f 6//107 34//107 5//107
f 9//108 29//108 7//108
f 7//109 29//109 30//109
f 86//110 87//110 74//110
f 86//111 74//111 73//111
f 86//112 73//112 75//112
f 75//113 76//113 84//113
f 75//114 73//114 76//114
f 76//115 79//115 84//115
f 77//116 82//116 84//116
f 84//117 85//117 77//117
f 78//118 79//118 80//118
f 78//119 80//119 81//119
f 88//120 92//120 87//120
f 81//121 89//121 90//121
f 91//122 79//122 78//122
f 81//123 80//123 92//123
f 80//124 79//124 92//124
f 87//125 92//125 74//125
f 86//126 75//126 82//126
f 82//127 75//127 84//127
f 92//128 79//128 73//128
f 79//129 76//129 73//129
f 79//130 91//130 83//130
f 73//131 74//131 92//131
f 84//132 79//132 85//132
f 83//133 85//133 79//133
f 86//134 88//134 87//134
f 86//135 77//135 88//135
f 86//136 82//136 77//136
f 77//137 85//137 36//137
f 85//138 83//138 36//138
f 88//139 77//139 89//139
f 77//140 36//140 89//140
f 89//141 81//141 92//141
f 89//142 92//142 88//142
f 91//143 36//143 83//143
f 40//144 91//144 90//144
f 40//145 90//145 89//145
f 40//146 89//146 36//146
f 36//147 91//147 38//147
f 38//148 91//148 40//148
f 39//149 30//149 28//149
f 39//150 28//150 24//150
f 33//151 26//151 29//151
f 25//152 26//152 33//152
f 22//153 23//153 25//153
f 25//154 23//154 27//154
f 23//155 21//155 27//155
f 27//156 21//156 24//156
f 21//157 22//157 24//157
f 24//158 22//158 25//158
f 94//159 21//159 23//159
f 94//160 23//160 95//160
f 95//161 23//161 22//161
f 95//162 22//162 93//162
f 93//163 22//163 21//163
f 93//164 21//164 94//164
f 94//165 96//165 93//165
f 93//166 96//166 95//166
f 95//167 96//167 94//167
f 39//168 33//168 37//168
f 37//169 33//169 34//169
f 50//170 17//170 15//170
f 10//171 103//171 16//171
f 16//172 103//172 100//172
f 15//173 100//173 97//173
f 16//174 100//174 15//174
f 15//175 97//175 11//175
f 11//176 97//176 98//176
f 105//177 99//177 104//177
f 104//178 99//178 101//178
f 104//179 101//179 100//179
f 100//180 101//180 102//180
f 100//181 102//181 97//181
f 105//182 97//182 99//182
f 10//183 98//183 103//183
f 11//184 98//184 10//184
f 98//185 14//185 103//185
f 103//186 14//186 13//186
f 103//187 13//187 104//187
f 104//188 13//188 106//188
f 104//189 106//189 105//189
f 105//190 106//190 98//190
f 98//191 106//191 12//191
f 98//192 12//192 14//192
f 98//193 97//193 105//193
f 101//194 99//194 102//194
f 13//195 14//195 106//195
f 14//196 12//196 106//196
f 99//197 97//197 102//197
f 9//198 107//198 5//198
f 5//199 107//199 1//199
f 111//200 109//200 108//200
f 113//201 112//201 107//201
f 107//202 112//202 111//202
f 111//203 112//203 109//203
f 8//204 1//204 4//204
f 8//205 4//205 110//205
f 110//206 4//206 3//206
f 110//207 3//207 111//207
f 111//208 3//208 2//208
f 111//209 2//209 1//209
f 108//210 113//210 9//210
f 113//211 107//211 9//211
f 108//212 110//212 111//212
f 110//213 9//213 8//213
f 110//214 108//214 9//214
f 114//215 112//215 113//215
f 115//216 2//216 3//216
f 115//217 1//217 2//217
f 115//218 3//218 4//218
f 115//219 4//219 1//219
f 114//220 109//220 112//220
f 113//221 108//221 114//221
f 114//222 108//222 109//222
f 70//223 52//223 64//223
f 64//224 52//224 60//224
f 78//225 81//225 90//225
f 78//226 90//226 91//226
