# Blender v3.0.1 OBJ File: 'spaceship.blend'
# www.blender.org
mtllib spaceship2.mtl
o spaceship
v -152.742432 39.972580 119.175529
v -146.193665 39.972580 119.175529
v -146.193665 46.521347 119.175529
v -152.742432 46.521347 119.175529
v -146.193665 46.521355 65.637535
v -152.742432 46.521355 65.637535
v -152.742432 39.972588 65.637535
v -146.193665 39.972588 65.637535
v -152.316238 8.435098 164.840759
v -145.173660 8.435098 164.840759
v -145.173660 15.577683 164.840759
v -152.316238 15.577683 164.840759
v -145.173660 15.577697 84.806740
v -152.316238 15.577697 84.806740
v -152.316238 8.435111 84.806740
v -145.173660 8.435111 84.806740
v -155.416061 5.335298 85.064514
v -142.073837 5.335298 85.064514
v -142.073837 18.677511 85.064514
v -155.416061 18.677511 85.064514
v -142.073837 18.677544 -111.271080
v -155.416061 18.677544 -111.271080
v -142.073837 5.335330 -111.271080
v -155.416061 5.335330 -111.271080
v -155.116257 37.598763 65.792732
v -143.819839 37.598763 65.792732
v -143.819839 48.895180 65.792732
v -155.116257 48.895180 65.792732
v -143.819839 48.895210 -110.478600
v -155.116257 48.895210 -110.478600
v -143.819839 37.598793 -110.478600
v -155.116257 37.598793 -110.478600
v 143.226257 37.598763 65.792732
v 154.522675 37.598763 65.792732
v 154.522675 48.895180 65.792732
v 143.226257 48.895180 65.792732
v 154.522675 48.895210 -110.478600
v 143.226257 48.895210 -110.478600
v 154.522675 37.598793 -110.478600
v 143.226257 37.598793 -110.478600
v 145.303177 8.435098 164.840759
v 152.445755 8.435098 164.840759
v 152.445755 15.577683 164.840759
v 145.303177 15.577683 164.840759
v 152.445755 15.577697 84.806740
v 145.303177 15.577697 84.806740
v 145.303177 8.435111 84.806740
v 152.445755 8.435111 84.806740
v 145.600082 39.972580 119.175529
v 152.148849 39.972580 119.175529
v 152.148849 46.521347 119.175529
v 145.600082 46.521347 119.175529
v 152.148849 46.521355 65.637535
v 145.600082 46.521355 65.637535
v 145.600082 39.972588 65.637535
v 152.148849 39.972588 65.637535
v -36.892471 1.083928 211.150757
v 36.892471 1.083928 211.150757
v 33.732498 62.087589 132.417007
v -33.732498 62.087589 132.417007
v -45.935165 82.842712 73.509163
v 45.935165 82.842712 73.509163
v 44.760139 87.139618 -173.194199
v -44.760139 87.139618 -173.194199
v -44.055325 0.207804 -158.257477
v 44.055325 0.207804 -158.257477
v 45.935165 -59.536816 73.509140
v -45.935165 -59.536816 73.509140
v 65.346321 18.408335 58.102230
v -65.346321 18.408335 58.102230
v -25.837164 -36.873535 202.555756
v 25.837164 -36.873535 202.555756
v -155.658615 -26.636328 54.534542
v -155.658615 79.530106 54.534557
v -168.559784 79.530106 54.534557
v -168.559784 -26.636328 54.534542
v -102.506454 152.788269 -13.034227
v -102.506454 152.788284 -103.696091
v -109.983604 152.788284 -103.696091
v -109.983604 152.788269 -13.034227
v -155.658615 79.530136 -140.291153
v -155.658615 -26.636295 -140.291168
v -168.559784 -26.636295 -140.291168
v -168.559784 79.530136 -140.291153
v -102.506454 -99.894463 -103.696129
v -102.506454 -99.894478 -13.034268
v -109.983604 -99.894478 -13.034268
v -109.983604 -99.894463 -103.696129
v -168.559784 -26.636311 -50.246437
v -168.559784 79.530128 -88.338539
v -155.658615 -26.636311 -46.070923
v -155.658615 79.530128 -84.163231
v -48.832966 31.720222 -25.263704
v -48.832966 43.236736 -25.263702
v -156.666840 80.298592 -12.970490
v -156.666840 74.960060 -12.970491
v -48.832966 43.888962 -124.060555
v -156.666840 80.030739 -50.016590
v -48.832966 32.372452 -124.060555
v -156.666840 74.692215 -50.016590
v -48.832966 31.720222 -25.263704
v -48.832966 43.236736 -25.263702
v -156.666840 -22.396894 -12.970508
v -156.666840 -27.735422 -12.970509
v -48.832966 43.888962 -124.060555
v -156.666840 -22.664742 -50.016605
v -48.832966 32.372452 -124.060555
v -156.666840 -28.003273 -50.016605
v 155.658615 -26.636328 54.534542
v 168.559784 -26.636328 54.534542
v 168.559784 79.530106 54.534557
v 155.658615 79.530106 54.534557
v 102.506454 152.788269 -13.034227
v 109.983604 152.788269 -13.034227
v 109.983604 152.788284 -103.696091
v 102.506454 152.788284 -103.696091
v 155.658615 79.530136 -140.291153
v 168.559784 79.530136 -140.291153
v 168.559784 -26.636295 -140.291168
v 155.658615 -26.636295 -140.291168
v 102.506454 -99.894463 -103.696129
v 109.983604 -99.894463 -103.696129
v 109.983604 -99.894478 -13.034268
v 102.506454 -99.894478 -13.893473
v 168.559784 -26.636314 -27.866407
v 168.559784 79.530121 -65.958710
v 155.658615 -26.636312 -34.070438
v 155.658615 79.530128 -72.162743
v 103.168465 151.875854 -104.151878
v 102.506454 -99.894478 -13.034268
v 48.832966 31.720222 -25.263704
v 156.666840 74.960060 -12.970491
v 156.666840 80.298592 -12.970490
v 48.832966 43.236736 -25.263702
v 156.666840 80.030739 -50.016590
v 48.832966 43.888962 -124.060555
v 156.666840 74.692215 -50.016590
v 48.832966 32.372452 -124.060555
v 48.832966 31.720222 -25.263704
v 156.666840 -27.735422 -12.970509
v 156.666840 -22.396894 -12.970508
v 48.832966 43.236736 -25.263702
v 156.666840 -22.664742 -50.016605
v 48.832966 43.888962 -124.060555
v 156.666840 -28.003273 -50.016605
v 48.832966 32.372452 -124.060555
v -26.972822 14.161858 -158.701324
v 26.972822 14.161858 -158.701324
v 26.972822 68.107498 -158.701309
v -26.972822 68.107498 -158.701309
v 35.958889 77.093582 -211.150742
v -35.958889 77.093582 -211.150742
v -16.708899 57.843582 -197.694565
v 16.708899 57.843582 -197.694565
v 16.708899 24.425795 -197.694580
v -16.708899 24.425795 -197.694580
v -35.958889 5.175800 -211.150757
v 35.958889 5.175800 -211.150757
v 24.571909 65.706596 -211.150742
v -24.571909 65.706596 -211.150742
v 24.571909 16.562782 -211.150757
v -24.571909 16.562782 -211.150757
v 142.203354 5.335298 85.064514
v 155.545578 5.335298 85.064514
v 155.545578 18.677511 85.064514
v 142.203354 18.677511 85.064514
v 155.545578 18.677544 -111.271080
v 142.203354 18.677544 -111.271080
v 155.545578 5.335330 -111.271080
v 142.203354 5.335330 -111.271080
vt 0.375000 0.000000
vt 0.625000 0.000000
vt 0.625000 0.250000
vt 0.375000 0.250000
vt 0.625000 0.500000
vt 0.375000 0.500000
vt 0.375000 0.750000
vt 0.625000 0.750000
vt 0.625000 1.000000
vt 0.375000 1.000000
vt 0.875000 0.000000
vt 0.875000 0.250000
vt 0.125000 0.000000
vt 0.125000 0.250000
vt 0.375000 0.000000
vt 0.625000 0.000000
vt 0.625000 0.250000
vt 0.375000 0.250000
vt 0.625000 0.500000
vt 0.375000 0.500000
vt 0.375000 0.750000
vt 0.625000 0.750000
vt 0.625000 1.000000
vt 0.375000 1.000000
vt 0.875000 0.000000
vt 0.875000 0.250000
vt 0.125000 0.000000
vt 0.125000 0.250000
vt 0.375000 0.000000
vt 0.625000 0.000000
vt 0.625000 0.250000
vt 0.375000 0.250000
vt 0.625000 0.500000
vt 0.375000 0.500000
vt 0.625000 0.750000
vt 0.375000 0.750000
vt 0.625000 1.000000
vt 0.375000 1.000000
vt 0.875000 0.000000
vt 0.875000 0.250000
vt 0.125000 0.000000
vt 0.125000 0.250000
vt 0.375000 0.000000
vt 0.625000 0.000000
vt 0.625000 0.250000
vt 0.375000 0.250000
vt 0.625000 0.500000
vt 0.375000 0.500000
vt 0.625000 0.750000
vt 0.375000 0.750000
vt 0.625000 1.000000
vt 0.375000 1.000000
vt 0.875000 0.000000
vt 0.875000 0.250000
vt 0.125000 0.000000
vt 0.125000 0.250000
vt 0.375000 0.000000
vt 0.625000 0.000000
vt 0.625000 0.250000
vt 0.375000 0.250000
vt 0.625000 0.500000
vt 0.375000 0.500000
vt 0.625000 0.750000
vt 0.375000 0.750000
vt 0.625000 1.000000
vt 0.375000 1.000000
vt 0.875000 0.000000
vt 0.875000 0.250000
vt 0.125000 0.000000
vt 0.125000 0.250000
vt 0.375000 0.000000
vt 0.625000 0.000000
vt 0.625000 0.250000
vt 0.375000 0.250000
vt 0.625000 0.500000
vt 0.375000 0.500000
vt 0.375000 0.750000
vt 0.625000 0.750000
vt 0.625000 1.000000
vt 0.375000 1.000000
vt 0.875000 0.000000
vt 0.875000 0.250000
vt 0.125000 0.000000
vt 0.125000 0.250000
vt 0.375000 0.000000
vt 0.625000 0.000000
vt 0.625000 0.250000
vt 0.375000 0.250000
vt 0.625000 0.500000
vt 0.375000 0.500000
vt 0.375000 0.750000
vt 0.625000 0.750000
vt 0.625000 1.000000
vt 0.375000 1.000000
vt 0.875000 0.000000
vt 0.875000 0.250000
vt 0.125000 0.000000
vt 0.125000 0.250000
vt 0.375000 0.125000
vt 0.625000 0.125000
vt 0.625000 0.250000
vt 0.375000 0.250000
vt 0.625000 0.125000
vt 0.625000 0.250000
vt 0.375000 0.250000
vt 0.375000 0.125000
vt 0.375000 0.500000
vt 0.625000 0.500000
vt 0.625000 0.750000
vt 0.375000 0.750000
vt 0.375000 0.000000
vt 0.625000 0.000000
vt 0.625000 0.250000
vt 0.375000 0.250000
vt 0.625000 0.500000
vt 0.375000 0.500000
vt 0.625000 0.750000
vt 0.375000 0.750000
vt 0.625000 1.000000
vt 0.375000 1.000000
vt 0.875000 0.000000
vt 0.875000 0.250000
vt 0.125000 0.000000
vt 0.125000 0.250000
vt 0.625000 0.500000
vt 0.375000 0.500000
vt 0.875000 0.187500
vt 0.125000 0.187500
vt 0.375000 0.500000
vt 0.375000 0.750000
vt 0.625000 0.750000
vt 0.625000 0.500000
vt 0.375000 0.750000
vt 0.375000 1.000000
vt 0.625000 1.000000
vt 0.625000 0.750000
vt 0.625000 0.500000
vt 0.375000 0.500000
vt 0.375000 0.500000
vt 0.625000 0.500000
vt 0.625000 0.750000
vt 0.375000 0.750000
vt 0.625000 0.750000
vt 0.375000 0.750000
vt 0.759455 0.000000
vt 0.808335 0.250000
vt 0.875000 0.250000
vt 0.875000 0.000000
vt 0.625000 0.433334
vt 0.625000 0.865545
vt 0.625000 1.000000
vt 0.375000 0.997631
vt 0.125000 0.000000
vt 0.261302 0.000000
vt 0.212422 0.250000
vt 0.125000 0.250000
vt 0.375000 0.500000
vt 0.625000 0.500000
vt 0.375000 0.412578
vt 0.375000 0.886302
vt 0.625000 0.894263
vt 0.779617 0.250000
vt 0.730737 0.000000
vt 0.875000 0.000000
vt 0.875000 0.250000
vt 0.625000 0.404617
vt 0.375000 0.870903
vt 0.125000 0.000000
vt 0.125000 0.250000
vt 0.197023 0.250000
vt 0.245903 0.000000
vt 0.375000 0.427977
vt 0.375000 0.750000
vt 0.625000 0.750000
vt 0.625000 1.000000
vt 0.375000 1.000000
vt 0.375000 0.625000
vt 0.625000 0.625000
vt 0.125000 0.000000
vt 0.375000 0.000000
vt 0.375000 0.000000
vt 0.625000 0.000000
vt 0.625000 0.000000
vt 0.875000 0.000000
vt 0.375000 0.000000
vt 0.375000 0.250000
vt 0.625000 0.250000
vt 0.625000 0.000000
vt 0.375000 0.250000
vt 0.625000 0.250000
vt 0.625000 1.000000
vt 0.375000 1.000000
vt 0.375000 0.000000
vt 0.375000 0.250000
vt 0.625000 0.250000
vt 0.625000 0.000000
vt 0.375000 0.500000
vt 0.625000 0.500000
vt 0.375000 0.750000
vt 0.625000 0.750000
vt 0.375000 1.000000
vt 0.625000 1.000000
vt 0.375000 0.000000
vt 0.375000 0.250000
vt 0.625000 0.250000
vt 0.625000 0.000000
vt 0.375000 0.500000
vt 0.625000 0.500000
vt 0.375000 0.750000
vt 0.625000 0.750000
vt 0.375000 1.000000
vt 0.625000 1.000000
vt 0.375000 0.000000
vt 0.625000 0.000000
vt 0.625000 0.250000
vt 0.375000 0.250000
vt 0.375000 0.250000
vt 0.625000 0.250000
vt 0.375000 0.500000
vt 0.625000 1.000000
vt 0.375000 1.000000
vt 0.375000 1.000000
vt 0.375000 0.000000
vt 0.625000 0.000000
vt 0.625000 0.250000
vt 0.375000 0.250000
vt 0.625000 0.500000
vt 0.375000 0.500000
vt 0.625000 0.750000
vt 0.375000 0.750000
vt 0.625000 1.000000
vt 0.375000 1.000000
vt 0.375000 0.000000
vt 0.625000 0.000000
vt 0.625000 0.250000
vt 0.375000 0.250000
vt 0.625000 0.500000
vt 0.375000 0.500000
vt 0.625000 0.750000
vt 0.375000 0.750000
vt 0.625000 1.000000
vt 0.375000 1.000000
vt 0.375000 0.000000
vt 0.625000 0.000000
vt 0.625000 0.250000
vt 0.375000 0.250000
vt 0.625000 0.500000
vt 0.375000 0.500000
vt 0.375000 0.750000
vt 0.625000 0.750000
vt 0.625000 1.000000
vt 0.375000 1.000000
vt 0.875000 0.000000
vt 0.875000 0.250000
vt 0.125000 0.000000
vt 0.125000 0.250000
vt 0.375000 0.500000
vt 0.625000 0.500000
vt 0.625000 0.750000
vt 0.375000 0.750000
vn 0.0000 0.0000 1.0000
vn 0.0000 1.0000 0.0000
vn 0.0000 -1.0000 -0.0000
vn 1.0000 0.0000 0.0000
vn -1.0000 0.0000 0.0000
vn 0.0000 0.0000 -1.0000
vn 0.0000 0.7905 0.6125
vn 0.9377 0.2177 0.2709
vn 0.0000 0.9432 0.3323
vn -0.9256 0.3162 0.2079
vn 0.9256 0.3162 0.2079
vn -0.9377 0.2177 0.2709
vn 0.0000 0.9998 0.0174
vn 0.9575 0.2883 0.0005
vn -0.9575 0.2883 0.0005
vn 0.0000 0.4469 -0.8946
vn 0.0000 -0.4469 -0.8946
vn -0.7810 0.6245 0.0000
vn -0.7810 -0.6245 -0.0000
vn -0.8094 -0.5873 -0.0000
vn -0.8094 0.5873 0.0000
vn 0.7810 -0.6245 -0.0000
vn 0.7810 0.6245 0.0000
vn 0.8094 0.5873 0.0000
vn 0.8094 -0.5873 0.0000
vn 0.0000 -0.9683 -0.2496
vn 0.0000 -0.1693 -0.9856
vn -0.9870 -0.1362 -0.0857
vn 0.0000 -0.2208 0.9753
vn 0.9870 -0.1362 -0.0857
vn 0.0000 -0.9849 0.1730
vn 0.9556 -0.2413 0.1690
vn -0.9556 -0.2413 0.1690
vn 0.0000 0.6780 0.7351
vn 0.0000 -0.6780 0.7351
vn 0.1133 -0.0000 0.9936
vn 0.3224 0.9466 0.0027
vn -0.5661 0.0000 -0.8244
vn -0.3697 -0.9292 -0.0026
vn -0.5219 0.8530 0.0024
vn 0.4849 -0.8745 -0.0025
vn -0.1133 -0.0000 0.9936
vn -0.3224 0.9466 0.0027
vn 0.5661 0.0000 -0.8244
vn 0.3697 -0.9292 -0.0026
vn 0.5219 0.8530 0.0024
vn -0.4849 -0.8745 -0.0025
vn 0.0000 0.9856 0.1689
vn 0.0000 -0.9856 0.1689
vn 0.9856 -0.0000 0.1689
vn -0.9856 -0.0000 0.1689
vn 0.0000 -0.8634 -0.5045
vn -0.8634 0.0000 -0.5045
vn 0.0000 0.8634 -0.5045
vn 0.8634 0.0000 -0.5045
usemtl lambert4SG
s off
f 1/1/1 2/2/1 3/3/1 4/4/1
f 4/4/2 3/3/2 5/5/2 6/6/2
f 7/7/3 8/8/3 2/9/3 1/10/3
f 2/2/4 8/11/4 5/12/4 3/3/4
f 7/13/5 1/1/5 4/4/5 6/14/5
f 9/15/1 10/16/1 11/17/1 12/18/1
f 12/18/2 11/17/2 13/19/2 14/20/2
f 15/21/3 16/22/3 10/23/3 9/24/3
f 10/16/4 16/25/4 13/26/4 11/17/4
f 15/27/5 9/15/5 12/18/5 14/28/5
f 17/29/1 18/30/1 19/31/1 20/32/1
f 20/32/2 19/31/2 21/33/2 22/34/2
f 22/34/6 21/33/6 23/35/6 24/36/6
f 24/36/3 23/35/3 18/37/3 17/38/3
f 18/30/4 23/39/4 21/40/4 19/31/4
f 24/41/5 17/29/5 20/32/5 22/42/5
f 25/43/1 26/44/1 27/45/1 28/46/1
f 28/46/2 27/45/2 29/47/2 30/48/2
f 30/48/6 29/47/6 31/49/6 32/50/6
f 32/50/3 31/49/3 26/51/3 25/52/3
f 26/44/4 31/53/4 29/54/4 27/45/4
f 32/55/5 25/43/5 28/46/5 30/56/5
f 33/57/1 34/58/1 35/59/1 36/60/1
f 36/60/2 35/59/2 37/61/2 38/62/2
f 38/62/6 37/61/6 39/63/6 40/64/6
f 40/64/3 39/63/3 34/65/3 33/66/3
f 34/58/4 39/67/4 37/68/4 35/59/4
f 40/69/5 33/57/5 36/60/5 38/70/5
f 41/71/1 42/72/1 43/73/1 44/74/1
f 44/74/2 43/73/2 45/75/2 46/76/2
f 47/77/3 48/78/3 42/79/3 41/80/3
f 42/72/4 48/81/4 45/82/4 43/73/4
f 47/83/5 41/71/5 44/74/5 46/84/5
f 49/85/1 50/86/1 51/87/1 52/88/1
f 52/88/2 51/87/2 53/89/2 54/90/2
f 55/91/3 56/92/3 50/93/3 49/94/3
f 50/86/4 56/95/4 53/96/4 51/87/4
f 55/97/5 49/85/5 52/88/5 54/98/5
f 57/99/7 58/100/7 59/101/7 60/102/7
f 69/103/8 62/104/8 59/101/8
f 62/104/9 61/105/9 60/102/9 59/101/9
f 60/102/10 70/106/10 57/99/10
f 69/103/11 59/101/11 58/100/11
f 61/105/12 70/106/12 60/102/12
f 153/107/6 154/108/6 155/109/6 156/110/6
f 163/111/1 164/112/1 165/113/1 166/114/1
f 166/114/2 165/113/2 167/115/2 168/116/2
f 168/116/6 167/115/6 169/117/6 170/118/6
f 170/118/3 169/117/3 164/119/3 163/120/3
f 164/112/4 169/121/4 167/122/4 165/113/4
f 170/123/5 163/111/5 166/114/5 168/124/5
usemtl lambert3SG
f 61/105/13 62/104/13 63/125/13 64/126/13
f 69/103/14 63/127/14 62/104/14
f 64/128/15 70/106/15 61/105/15
f 81/129/6 82/130/6 83/131/6 84/132/6
f 85/133/3 86/134/3 87/135/3 88/136/3
f 84/132/16 79/137/16 78/138/16 81/129/16
f 82/130/17 85/133/17 88/136/17 83/131/17
f 117/139/6 118/140/6 119/141/6 120/142/6
f 120/142/17 119/141/17 122/143/17 121/144/17
s 1
f 89/145/5 90/146/5 84/147/5 83/148/5
f 90/149/18 79/137/18 84/132/18
f 83/131/19 88/136/19 87/135/19 89/150/19
f 121/144/3 122/143/3 123/151/3 124/152/3
f 120/153/5 127/154/5 128/155/5 117/156/5
f 118/140/16 117/139/16 129/157/16 115/158/16
f 117/139/20 128/159/20 129/157/20
f 124/152/21 127/160/21 120/142/21 121/144/21
f 119/141/22 125/161/22 123/151/22 122/143/22
f 126/162/4 125/163/4 119/164/4 118/165/4
f 115/158/23 126/166/23 118/140/23
f 91/167/24 86/134/24 85/133/24 82/130/24
f 82/168/4 81/169/4 92/170/4 91/171/4
f 81/129/25 78/138/25 92/172/25
usemtl lambert2SG
s off
f 65/173/26 66/174/26 67/175/26 68/176/26
f 64/177/27 63/178/27 66/174/27 65/173/27
f 65/179/28 68/180/28 70/106/28 64/128/28
f 71/181/29 72/182/29 58/100/29 57/99/29
f 67/183/30 66/184/30 63/127/30 69/103/30
f 68/180/31 67/183/31 72/182/31 71/181/31
f 67/183/32 69/103/32 58/100/32 72/182/32
f 70/106/33 68/180/33 71/181/33 57/99/33
f 73/185/1 74/186/1 75/187/1 76/188/1
f 77/189/2 78/138/2 79/137/2 80/190/2
f 74/186/34 77/189/34 80/190/34 75/187/34
f 76/191/35 87/135/35 86/134/35 73/192/35
f 93/193/36 94/194/36 95/195/36 96/196/36
f 94/194/37 97/197/37 98/198/37 95/195/37
f 97/197/38 99/199/38 100/200/38 98/198/38
f 99/199/39 93/201/39 96/202/39 100/200/39
f 101/203/36 102/204/36 103/205/36 104/206/36
f 102/204/40 105/207/40 106/208/40 103/205/40
f 105/207/38 107/209/38 108/210/38 106/208/38
f 107/209/41 101/211/41 104/212/41 108/210/41
f 109/213/1 110/214/1 111/215/1 112/216/1
f 113/217/2 114/218/2 115/158/2 116/219/2
f 112/216/34 111/215/34 114/218/34 113/217/34
f 110/220/35 109/221/35 130/222/35 123/151/35
f 131/223/42 132/224/42 133/225/42 134/226/42
f 134/226/43 133/225/43 135/227/43 136/228/43
f 136/228/44 135/227/44 137/229/44 138/230/44
f 138/230/45 137/229/45 132/231/45 131/232/45
f 139/233/42 140/234/42 141/235/42 142/236/42
f 142/236/46 141/235/46 143/237/46 144/238/46
f 144/238/44 143/237/44 145/239/44 146/240/44
f 146/240/47 145/239/47 140/241/47 139/242/47
f 147/243/1 148/244/1 149/245/1 150/246/1
f 150/246/48 149/245/48 151/247/48 152/248/48
f 157/249/49 158/250/49 148/251/49 147/252/49
f 148/244/50 158/253/50 151/254/50 149/245/50
f 157/255/51 147/243/51 150/246/51 152/256/51
f 160/257/52 159/258/52 154/108/52 153/107/52
f 159/258/53 161/259/53 155/109/53 154/108/53
f 161/259/54 162/260/54 156/110/54 155/109/54
f 162/260/55 160/257/55 153/107/55 156/110/55
s 1
f 91/171/4 92/170/4 74/186/4 73/185/4
f 92/172/25 78/138/25 77/189/25 74/186/25
f 73/192/24 86/134/24 91/167/24
f 110/214/4 125/163/4 126/162/4 111/215/4
f 111/215/23 126/166/23 115/158/23 114/218/23
f 123/151/22 125/161/22 110/220/22
f 152/248/6 151/247/6 159/258/6 160/257/6
f 151/247/6 158/250/6 161/259/6 159/258/6
f 158/250/6 157/249/6 162/260/6 161/259/6
f 157/249/6 152/248/6 160/257/6 162/260/6
f 124/152/3 123/151/3 130/222/3
f 109/221/21 127/160/21 124/152/21 130/222/21
f 128/155/5 127/154/5 109/213/5 112/216/5
f 129/157/20 128/159/20 112/216/20 113/217/20 116/219/20
f 115/158/16 129/157/16 116/219/16
f 89/150/19 87/135/19 76/191/19
f 76/188/5 75/187/5 90/146/5 89/145/5
f 75/187/18 80/190/18 79/137/18 90/149/18
